<svg width="112" height="112" viewBox="0 0 112 112" fill="none" xmlns="http://www.w3.org/2000/svg">
<path d="M79.3332 11.4611C82.7912 12.1191 84.8446 12.8471 86.6132 15.0311C88.8392 17.7658 88.7226 20.7198 88.4846 26.6278C87.6446 47.8751 82.8846 74.6665 56.0046 74.6665C29.1246 74.6665 24.3599 47.8798 23.5106 26.6278C23.2772 20.7198 23.1606 17.7611 25.3772 15.0311C27.5986 12.2965 30.2539 11.8485 35.5692 10.9525C42.3226 9.84565 49.1565 9.30399 55.9999 9.33315C59.3506 9.33315 62.4679 9.44982 65.3332 9.65048" stroke="#313E49" stroke-width="3" stroke-linecap="round"/>
<path d="M88.6666 23.333L93.0953 24.8077C97.7153 26.3477 100.025 27.1177 101.346 28.9517C102.667 30.7857 102.667 33.2217 102.667 38.089V38.4297C102.667 42.443 102.667 44.4543 101.701 46.097C100.735 47.7397 98.9753 48.715 95.4659 50.6703L81.6666 58.333M23.3333 23.333L18.9046 24.8077C14.2846 26.3477 11.9746 27.1177 10.6539 28.9517C9.33325 30.7857 9.33325 33.2263 9.33325 38.089V38.4297C9.33325 42.443 9.33325 44.4543 10.2993 46.097C11.2653 47.7397 13.0246 48.715 16.5339 50.6703L30.3333 58.333" stroke="#313E49" stroke-width="3"/>
<path d="M56 79.333V88.6663" stroke="#313E49" stroke-width="3" stroke-linecap="round"/>
<path d="M72.3332 102.667H39.6665L41.2532 94.752C41.4645 93.6945 42.0357 92.7428 42.8694 92.0588C43.7032 91.3748 44.7481 91.0007 45.8265 91H66.1732C67.2516 91.0007 68.2965 91.3748 69.1303 92.0588C69.964 92.7428 70.5351 93.6945 70.7465 94.752L72.3332 102.667Z" stroke="#313E49" stroke-width="3" stroke-linecap="round" stroke-linejoin="round"/>
<path d="M84 102.667H28" stroke="#313E49" stroke-width="3" stroke-linecap="round"/>
</svg>
