<svg width="132" height="139" viewBox="0 0 132 139" fill="none" xmlns="http://www.w3.org/2000/svg">
<path d="M131.955 74.036C131.955 73.5245 132 73.013 132 72.5015C132 71.8545 131.477 71.328 130.835 71.328H107.407V70.1845C107.407 67.5818 108.795 65.1595 111.02 63.8506C114.007 62.0904 115.858 58.6 115.858 54.7485V29.6686C115.858 29.0216 115.336 28.4951 114.694 28.4951C114.052 28.4951 113.529 29.0216 113.529 29.6686V30.827C111.095 31.1279 108.93 32.3466 107.407 34.1369V27.5021C107.407 26.8552 106.884 26.3286 106.242 26.3286C105.6 26.3286 105.077 26.8552 105.077 27.5021V34.1369C103.554 32.3466 101.389 31.1279 98.9552 30.827V29.6686C98.9552 29.0216 98.4326 28.4951 97.7905 28.4951C97.1484 28.4951 96.6258 29.0216 96.6258 29.6686V54.7485C96.6258 58.6 98.4774 62.0904 101.464 63.8506C103.689 65.1595 105.077 67.5968 105.077 70.1845V71.328H71.8982V69.1464C71.8982 65.5056 73.914 62.2408 77.1692 60.6461C80.3796 59.0513 82.4552 55.5007 82.4552 51.6041V18.5052C82.4552 17.8583 81.9326 17.3317 81.2905 17.3317C80.6484 17.3317 80.1258 17.8583 80.1258 18.5052V20.2204C76.7511 20.5514 73.8095 22.3417 71.8982 24.9445V15.8122C71.8982 15.1653 71.3756 14.6387 70.7335 14.6387C70.0914 14.6387 69.5688 15.1653 69.5688 15.8122V24.9445C67.6425 22.3417 64.7009 20.5664 61.3412 20.2204V18.5052C61.3412 17.8583 60.8186 17.3317 60.1765 17.3317C59.5344 17.3317 59.0118 17.8583 59.0118 18.5052V51.6041C59.0118 55.5007 61.0873 59.0513 64.3127 60.6461C67.5529 62.2559 69.5837 65.5056 69.5837 69.1464V71.328H31.6561V67.8526C31.6561 62.963 34.538 58.5849 39.0027 56.6742C42.5566 55.1547 44.8561 51.4988 44.8561 47.3614V4.54357C44.8561 3.89663 44.3335 3.37006 43.6914 3.37006C43.0493 3.37006 42.5267 3.89663 42.5267 4.54357V6.9658C37.9724 7.34192 34.0154 9.85442 31.6561 13.5103V1.1735C31.6561 0.526572 31.1335 0 30.4914 0C29.8493 0 29.3267 0.526572 29.3267 1.1735V13.4953C26.9674 9.83938 23.0104 7.32687 18.4561 6.95075V4.52852C18.4561 3.88159 17.9335 3.35502 17.2914 3.35502C16.6493 3.35502 16.1267 3.88159 16.1267 4.52852V47.3464C16.1267 51.4988 18.4262 55.1547 21.9801 56.6592C26.4448 58.5699 29.3267 62.9479 29.3267 67.8375V71.3129H1.16471C0.522625 71.3129 0 71.8395 0 72.4864C0 72.5315 0 72.5616 0 72.6068C0 72.667 0 72.7121 0 72.7572C0 73.5245 0.0298656 74.2918 0.0597299 75.0591C0.0597299 75.1193 0.0597299 75.1945 0.0597299 75.2547C0.0895941 76.0972 0.149321 76.9397 0.223981 77.7822C0.194117 77.9628 0.223982 78.1283 0.268779 78.3088C0.343439 79.2416 0.447963 80.1593 0.56742 81.0771C0.56742 81.2275 0.567421 81.3629 0.627149 81.4983C0.791403 82.7019 0.98552 83.8905 1.2095 85.079C1.2095 85.1542 1.22443 85.2144 1.23937 85.2896C1.56787 86.9747 1.97104 88.6296 2.41901 90.2695C2.43394 90.4049 2.4638 90.5253 2.52353 90.6456C3.31493 93.4741 4.30045 96.2273 5.43529 98.8903C5.46516 99.0257 5.52489 99.161 5.61448 99.2814C10.9005 111.317 19.6059 121.473 30.5063 128.514C30.6258 128.619 30.7602 128.709 30.8946 128.769C41.0633 135.239 53.0986 139 66 139C66.8959 139 67.7919 138.97 68.6729 138.925C68.6729 138.925 68.6878 138.925 68.7027 138.925C68.7177 138.925 68.7176 138.925 68.7326 138.925C78.6326 138.519 87.9801 135.901 96.2973 131.538C96.3719 131.508 96.4317 131.478 96.5063 131.432C99.9855 129.597 103.271 127.476 106.347 125.068C106.496 124.993 106.63 124.888 106.735 124.752C109.452 122.601 111.991 120.254 114.335 117.711C114.455 117.621 114.559 117.516 114.649 117.38C116.784 115.033 118.755 112.536 120.547 109.903C120.577 109.858 120.622 109.813 120.652 109.768C123.802 105.089 126.371 99.9885 128.267 94.5573C128.297 94.4971 128.312 94.437 128.327 94.3768C130.208 88.9606 131.403 83.2285 131.821 77.2857C131.821 77.2256 131.821 77.1804 131.821 77.1202C131.895 76.1122 131.94 75.0892 131.955 74.0661C131.955 74.0661 131.955 74.036 131.955 74.021V74.036ZM71.8982 50.5509C71.8982 45.7215 75.4968 41.7496 80.1258 41.1629V48.0986C76.7511 48.4296 73.8095 50.2199 71.8982 52.8227V50.566V50.5509ZM80.1258 38.8008C76.7511 39.1318 73.8095 40.9222 71.8982 43.5249V41.2682C71.8982 36.4388 75.4968 32.4669 80.1258 31.8802V38.8159V38.8008ZM69.5688 43.5249C67.6425 40.9222 64.7009 39.1469 61.3412 38.8008V31.8651C65.9701 32.4519 69.5688 36.4237 69.5688 41.2532V43.5099V43.5249ZM61.3412 41.1629C65.9701 41.7496 69.5688 45.7215 69.5688 50.5509V52.8077C67.6425 50.2049 64.7009 48.4296 61.3412 48.0836V41.1479V41.1629ZM76.1389 58.5398C74.4217 59.3973 72.9882 60.631 71.8982 62.1054V59.8487C71.8982 55.0193 75.4968 51.0474 80.1258 50.4607V51.589C80.1258 54.598 78.5579 57.3211 76.1389 58.5247V58.5398ZM80.1258 22.5824V29.5181C76.7511 29.8491 73.8095 31.6395 71.8982 34.2422V31.9855C71.8982 27.1561 75.4968 23.1842 80.1258 22.5975V22.5824ZM69.5688 31.9705V34.2272C67.6425 31.6244 64.7009 29.8491 61.3412 29.5031V22.5674C65.9701 23.1541 69.5688 27.126 69.5688 31.9554V31.9705ZM65.3281 58.5398C62.909 57.3362 61.3412 54.6131 61.3412 51.6041V50.4757C65.9701 51.0625 69.5688 55.0343 69.5688 59.8637V62.1205C68.4787 60.6461 67.0602 59.3973 65.3281 58.5548V58.5398ZM31.6412 44.6082C31.6412 38.3194 36.4195 33.1289 42.5118 32.5422V41.8098C37.9575 42.186 34.0005 44.6985 31.6412 48.3544V44.6082ZM42.5118 30.1952C37.9575 30.5713 34.0005 33.0838 31.6412 36.7397V32.9935C31.6412 26.7047 36.4195 21.5142 42.5118 20.9275V30.1952ZM29.3118 36.7397C26.9525 33.0838 22.9955 30.5713 18.4412 30.1952V20.9275C24.5335 21.5142 29.3118 26.7047 29.3118 32.9935V36.7397ZM18.4412 32.5422C24.5335 33.1289 29.3118 38.3194 29.3118 44.6082V48.3544C26.9525 44.6985 22.9955 42.186 18.4412 41.8098V32.5422ZM38.0919 54.5228C35.3891 55.6812 33.1792 57.5919 31.6412 59.969V56.2379C31.6412 49.9491 36.4195 44.7586 42.5118 44.1719V47.3614C42.5118 50.5208 40.7348 53.3944 38.0919 54.5228ZM42.5118 9.3128V18.5805C37.9575 18.9566 34.0005 21.4691 31.6412 25.125V21.3788C31.6412 15.0901 36.4195 9.89956 42.5118 9.3128ZM29.3118 21.3788V25.125C26.9525 21.4691 22.9955 18.9566 18.4412 18.5805V9.3128C24.5335 9.89956 29.3118 15.0901 29.3118 21.3788ZM22.876 54.5228C20.233 53.3944 18.4412 50.5208 18.4412 47.3614V44.1719C24.5335 44.7586 29.3118 49.9491 29.3118 56.2379V59.969C27.7887 57.607 25.5787 55.6812 22.8611 54.5228H22.876ZM119.143 107.752L116.575 106.909L123.817 99.3115C122.473 102.245 120.905 105.074 119.143 107.752ZM113.32 115.349L6.91357 73.6599H7.52579L24.6081 79.2566L66.6272 93.0227C66.6272 93.0227 66.6869 93.0378 66.7167 93.0528L82.0072 98.0628L113.962 108.534C113.962 108.534 114.022 108.549 114.052 108.564L117.755 109.768C116.381 111.709 114.888 113.574 113.305 115.349H113.32ZM95.8344 129.146L2.49367 77.2557C2.49367 77.2557 2.49366 77.1353 2.47873 77.0751L103.554 124.271C101.105 126.076 98.5371 127.716 95.8344 129.161V129.146ZM83.6796 134.11L2.80724 80.4903C2.79231 80.3549 2.76244 80.2195 2.74751 80.0841L93.3109 130.424C90.2199 131.914 86.9946 133.132 83.6647 134.11H83.6796ZM69.076 136.578L3.43439 84.402C3.38959 84.1312 3.32987 83.8754 3.28507 83.6046L80.6633 134.908C76.9154 135.795 73.048 136.367 69.091 136.563L69.076 136.578ZM31.9697 126.693L7.58552 98.0628C7.03303 96.799 6.54027 95.5051 6.07738 94.1962L47.3647 133.84C41.8846 132.155 36.7181 129.717 31.9697 126.678V126.693ZM4.58416 89.5323C4.44977 89.0358 4.33032 88.5243 4.21086 88.0128L65.4027 136.638C60.8036 136.593 56.3389 136.051 52.0235 135.073L4.59909 89.5323H4.58416ZM61.0575 73.6599L25.1606 76.9698L15.0367 73.6599H61.0425H61.0575ZM109.452 73.6599L48.3652 84.5675L30.7751 78.8053L86.5466 73.6599H109.438H109.452ZM127.371 73.6599L67.09 90.7058L53.0837 86.1171L122.787 73.6599H127.371ZM129.193 80.3248L94.9235 99.823L85.7552 96.814L129.327 78.9708C129.282 79.4221 129.252 79.8735 129.193 80.3098V80.3248ZM129.536 76.353L82.3059 95.7007L71.0769 92.0147L129.566 75.4804C129.566 75.7662 129.551 76.0671 129.521 76.353H129.536ZM126.147 93.4891L114.111 106.112L108.064 104.126L127.505 89.0659C127.102 90.5554 126.654 92.0298 126.147 93.4741V93.4891ZM128.342 85.4702L105.376 103.253L97.9249 100.816L128.775 83.2586C128.655 83.9958 128.491 84.733 128.342 85.4702ZM107.407 56.4485V55.3051C107.407 51.6642 110.065 48.6553 113.529 48.0836V53.1386C111.095 53.4395 108.93 54.6582 107.407 56.4485ZM113.514 45.7065C111.08 46.0074 108.915 47.226 107.392 49.0163V47.8729C107.392 44.2321 110.05 41.2231 113.514 40.6514V45.7065ZM105.077 49.0013C103.554 47.211 101.389 45.9923 98.9552 45.6914V40.6363C102.419 41.208 105.077 44.217 105.077 47.8579V49.0013ZM98.9552 48.0836C102.419 48.6553 105.077 51.6642 105.077 55.3051V56.4485C103.554 54.6582 101.389 53.4395 98.9552 53.1386V48.0836ZM109.826 61.8196C108.885 62.3762 108.079 63.0833 107.392 63.8958V62.7373C107.392 59.1115 110.02 56.1025 113.469 55.5158C113.245 58.2088 111.901 60.5859 109.826 61.8045V61.8196ZM113.514 33.2192V38.2743C111.08 38.5752 108.915 39.7938 107.392 41.5842V40.4407C107.392 36.7999 110.05 33.7909 113.514 33.2192ZM105.077 40.4407V41.5842C103.554 39.7938 101.389 38.5752 98.9552 38.2743V33.2192C102.419 33.7909 105.077 36.7999 105.077 40.4407ZM102.643 61.8196C100.568 60.6009 99.224 58.2238 99 55.5308C102.434 56.1175 105.077 59.1115 105.077 62.7524V63.9108C104.391 63.0984 103.584 62.3762 102.643 61.8346V61.8196ZM13.0208 108.038L23.0403 119.803C19.2475 116.312 15.8878 112.355 13.0208 108.038ZM105.63 122.661L2.35928 74.4272V74.3971L111.603 117.2C109.721 119.141 107.735 120.976 105.63 122.661Z" fill="#313E49"/>
</svg>
