<svg width="24" height="24" viewBox="0 0 24 24" fill="none" xmlns="http://www.w3.org/2000/svg">
<path d="M11.9997 16.0013C12.2334 16.0017 12.4598 15.9203 12.6397 15.7713L18.6397 10.7713C18.8439 10.6015 18.9724 10.3576 18.9967 10.0932C19.0211 9.82875 18.9395 9.56547 18.7697 9.36125C18.6 9.15704 18.3561 9.02861 18.0916 9.00423C17.8272 8.97985 17.5639 9.06151 17.3597 9.23125L11.9997 13.7113L6.63972 9.39125C6.53744 9.30819 6.41974 9.24615 6.2934 9.20872C6.16706 9.17129 6.03457 9.1592 5.90354 9.17314C5.77251 9.18708 5.64553 9.22677 5.52989 9.28995C5.41426 9.35312 5.31225 9.43853 5.22972 9.54125C5.13814 9.64407 5.06878 9.7647 5.02599 9.89557C4.9832 10.0264 4.9679 10.1647 4.98104 10.3018C4.99418 10.4389 5.03549 10.5717 5.10237 10.6921C5.16926 10.8125 5.26027 10.9177 5.36973 11.0013L11.3697 15.8313C11.5548 15.9568 11.7766 16.0166 11.9997 16.0013Z" fill="#949CA8"/>
</svg>
